<svg xmlns="http://www.w3.org/2000/svg" width="24" height="25" viewBox="0 0 24 25" fill="none">
<path d="M-5.24537e-07 12.0135C-4.20793e-07 14.3896 0.703787 16.7123 2.02236 18.688C3.34094 20.6637 5.21508 22.2035 7.4078 23.1128C9.60051 24.0221 12.0133 24.2601 14.3411 23.7965C16.6689 23.3329 18.807 22.1887 20.4853 20.5086C22.1635 18.8284 23.3064 16.6877 23.7694 14.3572C24.2324 12.0268 23.9948 9.61119 23.0865 7.41594C22.1783 5.22069 20.6402 3.34437 18.6668 2.02427C16.6934 0.704169 14.3734 -0.000433597 12 -0.000433493C8.81843 0.00293121 5.76814 1.26976 3.51843 3.52207C1.26872 5.77438 0.00335913 8.82821 -5.24537e-07 12.0135ZM22.1538 12.0135C22.1538 14.024 21.5583 15.9894 20.4426 17.6612C19.3269 19.3329 17.7411 20.6358 15.8857 21.4052C14.0303 22.1746 11.9887 22.376 10.0191 21.9837C8.04943 21.5915 6.24019 20.6233 4.82015 19.2016C3.4001 17.7799 2.43304 15.9686 2.04126 13.9967C1.64947 12.0247 1.85055 9.98077 2.61907 8.12325C3.38759 6.26573 4.68903 4.67808 6.35882 3.56107C8.02861 2.44406 9.99176 1.84786 12 1.84786C14.692 1.85091 17.2729 2.92291 19.1765 4.82867C21.08 6.73442 22.1508 9.31831 22.1538 12.0135ZM12.27 7.66304C12.3557 7.57712 12.4575 7.50895 12.5696 7.46244C12.6817 7.41594 12.8018 7.392 12.9231 7.392C13.0444 7.392 13.1645 7.41594 13.2766 7.46244C13.3886 7.50895 13.4904 7.57712 13.5762 7.66304L17.2685 11.3596C17.3543 11.4454 17.4224 11.5474 17.4688 11.6596C17.5153 11.7717 17.5392 11.892 17.5392 12.0135C17.5392 12.1349 17.5153 12.2552 17.4688 12.3673C17.4224 12.4795 17.3543 12.5815 17.2685 12.6673L13.5762 16.3639C13.4029 16.5373 13.168 16.6347 12.9231 16.6347C12.6781 16.6347 12.4432 16.5373 12.27 16.3639C12.0968 16.1905 11.9995 15.9553 11.9995 15.71C11.9995 15.4648 12.0968 15.2296 12.27 15.0562L14.3873 12.9376L7.38461 12.9376C7.1398 12.9376 6.90501 12.8402 6.7319 12.6669C6.55879 12.4936 6.46154 12.2586 6.46154 12.0135C6.46154 11.7684 6.55879 11.5333 6.7319 11.36C6.90501 11.1867 7.1398 11.0893 7.38461 11.0893L14.3873 11.0893L12.27 8.97071C12.1842 8.88488 12.1161 8.78295 12.0696 8.67076C12.0232 8.55858 11.9993 8.43832 11.9993 8.31687C11.9993 8.19543 12.0232 8.07517 12.0696 7.96298C12.1161 7.85079 12.1842 7.74887 12.27 7.66304Z" fill="#121212"/>
</svg>