<svg xmlns="http://www.w3.org/2000/svg" width="75" height="72" viewBox="0 0 75 72" fill="none">
  <g clip-path="url(#clip0_85_5457)">
    <path d="M63.5392 17.363C66.0726 18.8649 69.4311 19.7009 68.8159 20.0924C68.5649 20.2518 67.4551 20.6324 65.4077 21.0675C63.3673 21.5148 60.3745 21.9193 56.4256 22.3317C52.4363 22.816 48.141 23.3202 43.7326 24.654C41.5438 25.3407 39.3144 26.2133 37.2146 27.4841C35.106 28.7111 33.125 30.4188 31.563 32.49C30.001 34.5612 28.7895 37.0186 28.2829 39.7414C27.7816 42.445 28.0448 45.4614 29.4959 48.0771C30.2289 49.3767 31.2567 50.5081 32.4962 51.3967C33.7409 52.266 35.2576 52.8988 36.9012 52.9545C38.5395 53.0296 40.2292 52.424 41.4808 51.3358C42.7394 50.2598 43.6229 48.8117 44.0847 47.2377C44.8279 44.787 44.3916 42.1379 43.3813 39.8812C42.379 37.5957 40.8142 35.6227 38.9765 33.9276C35.2763 30.5513 30.306 28.5589 25.2201 28.2766C22.6786 28.1306 20.084 28.4056 17.6267 29.164C15.1624 29.91 12.8302 31.1588 10.8607 32.7867C6.89979 36.0469 4.30332 40.6861 3.29245 45.4793C2.57673 48.6633 2.80656 51.7639 3.57566 53.9545C3.91685 54.981 4.31275 55.618 4.62203 56.0033C4.93131 56.3886 5.16361 56.5248 5.33114 56.5188C5.67146 56.4875 5.77194 55.8929 5.69079 55.3938C5.68033 55.3184 5.62702 55.0964 5.52384 54.7157C5.46453 54.3262 5.36764 53.771 5.2411 53.021C5.10202 51.5211 4.91102 49.188 5.63729 45.9654C6.36884 42.7235 8.03494 38.9079 11.2292 35.7593C12.8285 34.196 14.8039 32.8496 17.1087 31.9666C19.4064 31.0713 22.0266 30.6271 24.7392 30.7162C27.451 30.8465 30.2579 31.5005 32.8915 32.7499C35.4927 34.0422 37.9355 35.9133 39.7121 38.4003C40.5969 39.6377 41.3114 41.0048 41.6996 42.4277C42.0949 43.8629 42.1278 45.3337 41.6882 46.6753C41.2459 48.0264 40.3669 49.2685 39.2148 49.9174C38.0863 50.5936 36.6804 50.6547 35.3433 50.1229C34.0009 49.6105 32.7555 48.5543 31.9155 47.267C31.0842 46.0235 30.6085 44.39 30.5396 42.785C30.374 39.5257 31.738 36.094 33.9786 33.3998C36.1787 30.6635 39.3763 28.791 42.8786 27.5099C46.3905 26.2315 50.2089 25.576 54.1017 25.0653C55.2183 24.925 56.342 24.797 57.4586 24.6568L58.7743 24.5088L61.4259 24.1768C63.1925 23.9345 64.9723 23.6439 66.7276 23.2533C68.4829 22.8628 69.6324 22.2235 69.4523 22.5785C69.2977 22.8784 68.5559 23.7329 67.284 24.9711C66.0217 26.2119 64.2224 27.8242 62.1151 29.6529C60.7371 30.8621 59.5818 32.2048 60.599 32.3898C61.7828 32.61 64.5445 30.7012 65.7453 29.6094C70.0206 25.8443 72.2165 22.972 73.2898 21.1714C74.3683 19.3516 74.49 18.5658 74.3455 18.2982C74.1021 17.7858 71.4717 17.9266 66.7644 15.9957C64.0842 14.8787 62.2729 13.9581 60.9841 13.4395C59.6979 12.9113 58.9499 12.7274 58.5306 12.82C56.0569 13.3354 62.1032 16.5865 63.5418 17.3533L63.5392 17.363Z" fill="#121212"/>
  </g>
  <defs>
    <clipPath id="clip0_85_5457">
      <rect width="61.56" height="56.36" fill="white" transform="translate(15.4551 0.87793) rotate(15.3031)"/>
    </clipPath>
  </defs>
</svg>